PathFileType	4	(X/Y/Z)	G:/My Drive/Project Folder - EPSRC SCI-FES/EPSRC-SCI-FES/Technical/Trial Tests/04122019 - Marker Volunteer01/Rosti Data/New Session 101.trc	
DataRate	CameraRate	NumFrames	NumMarkers	Units	OrigDataRate	OrigDataStartFrame	OrigNumFrames	
100.00	100.00	21	14	mm	100.00	295	337	
Frame#	Time	C7			PX			T8			IJ			SC			AC			AI			TS			AA			GH			LE			ME			US			RS			
		X1	Y1	Z1	X2	Y2	Z2	X3	Y3	Z3	X4	Y4	Z4	X5	Y5	Z5	X6	Y6	Z6	X7	Y7	Z7	X8	Y8	Z8	X9	Y9	Z9	X10	Y10	Z10	X11	Y11	Z11	X12	Y12	Z12	X13	Y13	Z13	X14	Y14	Z14	

295	2.940	686.31012	-14.56138	1538.39294	458.75726	-34.52256	1291.41382	759.58008	-6.77135	1323.35925	525.03217	-36.48946	1433.92542	528.95001	-11.49294	1442.44580	597.51849	132.72089	1486.39526	726.30566	70.69887	1461.86365	756.95776	75.34123	1343.46265	666.98376	183.84650	1442.75366	627.56171	194.90172	1457.48389	554.34625	283.94208	1184.70496				461.10770	370.55692	936.15662	408.72208	407.88187	983.39575 
296	2.950	686.34021	-14.55170	1538.38538	458.81488	-34.56178	1291.40112	759.60651	-6.76756	1323.37915	525.06879	-36.51119	1433.91907	528.98944	-11.52444	1442.43884	597.53766	132.71404	1486.37573	726.32928	70.70377	1461.87158	756.97931	75.33926	1343.46228	666.98572	183.83975	1442.73413	627.57104	194.90074	1457.46777	554.37146	283.89029	1184.67188				461.10196	370.49155	936.12317	408.73264	407.86783	983.38153 
297	2.960	686.37158	-14.54779	1538.38501	458.87256	-34.59572	1291.38623	759.63470	-6.76625	1323.39624	525.10199	-36.53379	1433.91321	529.02661	-11.56174	1442.43579	597.55096	132.70474	1486.35791	726.34912	70.71487	1461.87488	756.99896	75.33772	1343.46313	666.98785	183.83284	1442.72131	627.57648	194.90211	1457.45605	554.39111	283.83365	1184.63965				461.10461	370.43491	936.09290	408.72757	407.82248	983.36139 
298	2.970	686.40179	-14.54778	1538.38806	458.92963	-34.62497	1291.37134	759.66388	-6.76850	1323.40222	525.13257	-36.55632	1433.90784	529.06287	-11.60420	1442.43652	597.55994	132.69398	1486.34448	726.36713	70.72623	1461.87415	757.01801	75.33717	1343.46521	666.99451	183.82893	1442.71619	627.58002	194.90437	1457.44836	554.40198	283.77841	1184.61365				461.11731	370.38611	936.06519	408.68445	407.68298	983.33197 
299	2.980	686.42847	-14.54901	1538.39136	458.98544	-34.65122	1291.35815	759.68939	-6.77409	1323.39685	525.16113	-36.57748	1433.90222	529.09894	-11.64994	1442.44019	597.56653	132.68279	1486.33716	726.38788	70.72897	1461.87170	757.03729	75.33828	1343.46838	667.00629	183.82784	1442.71814	627.58295	194.90538	1457.44458	554.40338	283.72873	1184.59839				461.13843	370.34250	936.03955	408.59921	407.43597	983.29144 
300	2.990	686.45129	-14.54940	1538.39319	459.03979	-34.67625	1291.34790	759.70917	-6.78164	1323.38928	525.18842	-36.59578	1433.89575	529.13538	-11.69581	1442.44543	597.57263	132.67195	1486.33606	726.41162	70.72092	1461.87073	757.05707	75.34161	1343.47278	667.02106	183.82710	1442.72583	627.58606	194.90358	1457.44421	554.39709	283.68518	1184.59692				461.16275	370.29950	936.01538	408.50516	407.16052	983.24634 
301	3.000	686.47156	-14.54815	1538.39343	459.09283	-34.70129	1291.33984	759.72583	-6.78625	1323.38904	525.21509	-36.60993	1433.88770	529.17188	-11.73783	1442.45032	597.57971	132.66190	1486.33984	726.43567	70.71038	1461.87573	757.07739	75.34760	1343.47839	667.03595	183.82588	1442.73718	627.58966	194.89842	1457.44678	554.38556	283.64529	1184.60889				461.18237	370.25122	935.99243	408.44702	406.96869	983.21155 
302	3.010	686.49066	-14.54613	1538.39233	459.14481	-34.72662	1291.33228	759.74255	-6.78251	1323.39539	525.24194	-36.61949	1433.87732	529.20795	-11.77242	1442.45361	597.58887	132.65237	1486.34656	726.45734	70.70841	1461.89038	757.09821	75.35638	1343.48523	667.04840	183.82501	1442.74878	627.59326	194.89032	1457.45129	554.37146	283.60715	1184.62915				461.18896	370.19244	935.97034	408.43646	406.89951	983.19574 
303	3.020	686.50970	-14.54544	1538.39001	459.19556	-34.75190	1291.32300	759.76587	-6.77139	1323.39941	525.26996	-36.62540	1433.86450	529.24323	-11.79782	1442.45422	597.60016	132.64272	1486.35388	726.47681	70.71694	1461.91125	757.11938	75.36777	1343.49316	667.05853	183.82550	1442.75745	627.59631	194.88023	1457.45728	554.35742	283.57059	1184.65015				461.17764	370.12109	935.94904	408.45163	406.90738	983.19269 
304	3.030	686.52887	-14.54826	1538.38757	459.24463	-34.77681	1291.31091	759.79993	-6.75821	1323.39917	525.29987	-36.62981	1433.84937	529.27747	-11.81455	1442.45190	597.61316	132.63245	1486.35986	726.49500	70.73019	1461.92834	757.14069	75.38123	1343.50208	667.06763	183.82782	1442.76282	627.59802	194.86954	1457.46362	554.34430	283.53848	1184.66479				461.15005	370.04037	935.92865	408.46896	406.93015	983.18988 
305	3.040	686.54742	-14.55525	1538.38574	459.29123	-34.80112	1291.29541	759.83990	-6.74440	1323.39832	525.33203	-36.63524	1433.83215	529.31073	-11.82502	1442.44690	597.62689	132.62173	1486.36377	726.51160	70.73985	1461.93384	757.16199	75.39590	1343.51172	667.07593	183.83237	1442.76624	627.59796	194.85977	1457.47009	554.33221	283.51331	1184.66956				461.11169	369.95633	935.90948	408.48697	406.95126	983.18384 
306	3.050	686.56458	-14.56510	1538.38550	459.33453	-34.82428	1291.27747	759.87872	-6.72588	1323.39734	525.36603	-36.64357	1433.81311	529.34290	-11.83265	1442.43945	597.63995	132.61128	1486.36560	726.52649	70.73962	1461.92981	757.18311	75.41088	1343.52185	667.08264	183.83812	1442.76978	627.59607	194.85214	1457.47693	554.32111	283.49353	1184.66541				461.06860	369.87497	935.89233	408.50101	406.95462	983.17322 
307	3.060	686.58057	-14.57497	1538.38696	459.37427	-34.84532	1291.25940	759.91528	-6.70081	1323.39539	525.40063	-36.65549	1433.79236	529.37372	-11.84052	1442.43005	597.65143	132.60170	1486.36584	726.53955	70.73193	1461.92761	757.20410	75.42535	1343.53210	667.08563	183.84319	1442.77478	627.59271	194.84706	1457.48474	554.31201	283.47446	1184.65637				461.02542	369.80081	935.87793	408.50378	406.93362	983.16315 
308	3.070	686.59686	-14.58158	1538.38928	459.41058	-34.86315	1291.24353	759.94861	-6.67618	1323.39746	525.43439	-36.67046	1433.76978	529.40271	-11.85032	1442.41968	597.66083	132.59322	1486.36548	726.55121	70.72488	1461.93408	757.22516	75.43878	1343.54187	667.08331	183.84735	1442.78223	627.58862	194.84395	1457.49377	554.30597	283.45193	1184.64746				460.98489	369.73654	935.86707	408.49341	406.89948	983.16168 
309	3.080	686.61438	-14.58275	1538.39172	459.44382	-34.87714	1291.23132	759.97632	-6.65972	1323.40808	525.46564	-36.68716	1433.74573	529.42908	-11.86214	1442.40991	597.66809	132.58575	1486.36487	726.56158	70.72475	1461.94604	757.24670	75.45093	1343.55115	667.07794	183.85304	1442.79224	627.58435	194.84192	1457.50342	554.30219	283.42606	1184.64246				460.94797	369.68304	935.85999	408.47244	406.86612	983.17151 
310	3.090	686.63300	-14.57837	1538.39404	459.47409	-34.88758	1291.22351	759.99878	-6.65202	1323.42505	525.49353	-36.70396	1433.72107	529.45251	-11.87502	1442.40186	597.67389	132.57912	1486.36414	726.57013	70.73345	1461.95410	757.26910	75.46185	1343.55969	667.07410	183.86105	1442.80286	627.58069	194.84068	1457.51270	554.29767	283.40237	1184.64111				460.91406	369.63992	935.85645	408.44519	406.83844	983.18530 
311	3.100	686.65149	-14.56997	1538.39648	459.50140	-34.89610	1291.21936	760.01715	-6.64705	1323.44031	525.51807	-36.71923	1433.69739	529.47308	-11.88787	1442.39624	597.67920	132.57320	1486.36255	726.57666	70.74921	1461.95410	757.29254	75.47192	1343.56738	667.07550	183.86882	1442.81152	627.57794	194.84045	1457.52087	554.29034	283.38879	1184.63879				460.88193	369.60593	935.85602	408.41391	406.81052	983.19397 
312	3.110	686.66833	-14.55977	1538.39966	459.52576	-34.90439	1291.21838	760.03394	-6.63936	1323.44568	525.53986	-36.73180	1433.67664	529.49146	-11.89967	1442.39368	597.68542	132.56796	1486.35974	726.58246	70.76657	1461.95032	757.31683	75.48166	1343.57422	667.08197	183.87422	1442.81775	627.57660	194.84166	1457.52747	554.27936	283.38782	1184.63281				460.84988	369.57938	935.85809	408.37729	406.77637	983.19617 
313	3.120	686.68274	-14.54988	1538.40369	459.54724	-34.91299	1291.21985	760.05518	-6.62798	1323.43835	525.55994	-36.74129	1433.66089	529.50806	-11.90936	1442.39453	597.69366	132.56346	1486.35559	726.59045	70.78051	1461.95020	757.34131	75.49159	1343.58020	667.09033	183.87849	1442.82410	627.57703	194.84471	1457.53296	554.26550	283.39441	1184.62524				460.81635	369.55844	935.86243	408.33414	406.73901	983.19849 
314	3.130	686.69507	-14.54163	1538.40796	459.56656	-34.92113	1291.22253	760.07574	-6.61476	1323.42395	525.57904	-36.74818	1433.65173	529.52313	-11.91607	1442.39905	597.70422	132.55984	1486.35095	726.60132	70.78903	1461.95642	757.36536	75.50201	1343.58533	667.09796	183.88390	1442.83301	627.57935	194.84956	1457.53809	554.25256	283.40152	1184.61890				460.77991	369.54156	935.86896	408.28687	406.70807	983.20990 
315	3.140	686.70660	-14.53521	1538.41162	459.58469	-34.92712	1291.22510	760.08875	-6.59676	1323.41138	525.59784	-36.75357	1433.64905	529.53717	-11.91997	1442.40637	597.71686	132.55721	1486.34692	726.61346	70.79121	1461.96606	757.38812	75.51302	1343.58923	667.10455	183.89191	1442.84497	627.58331	194.85562	1457.54297	554.24261	283.40350	1184.61658				460.73959	369.52756	935.87781	408.24017	406.69122	983.23370 
